<?xml version="1.0" encoding="utf-8"?>
<!-- Generator: Adobe Illustrator 26.3.1, SVG Export Plug-In . SVG Version: 6.00 Build 0)  -->
<!DOCTYPE svg PUBLIC "-//W3C//DTD SVG 1.1//EN" "http://www.w3.org/Graphics/SVG/1.1/DTD/svg11.dtd" [
	<!ENTITY ns_extend "http://ns.adobe.com/Extensibility/1.0/">
	<!ENTITY ns_ai "http://ns.adobe.com/AdobeIllustrator/10.0/">
	<!ENTITY ns_graphs "http://ns.adobe.com/Graphs/1.0/">
	<!ENTITY ns_vars "http://ns.adobe.com/Variables/1.0/">
	<!ENTITY ns_imrep "http://ns.adobe.com/ImageReplacement/1.0/">
	<!ENTITY ns_sfw "http://ns.adobe.com/SaveForWeb/1.0/">
	<!ENTITY ns_custom "http://ns.adobe.com/GenericCustomNamespace/1.0/">
	<!ENTITY ns_adobe_xpath "http://ns.adobe.com/XPath/1.0/">
]>
<svg version="1.1" id="Layer_1" xmlns:x="&ns_extend;" xmlns:i="&ns_ai;" xmlns:graph="&ns_graphs;"
	 xmlns="http://www.w3.org/2000/svg" xmlns:xlink="http://www.w3.org/1999/xlink" x="0px" y="0px" width="186px" height="186px"
	 viewBox="0 0 186 186" style="enable-background:new 0 0 186 186;" xml:space="preserve">
<style type="text/css">
	.st0{fill:#FAB889;}
	.st1{fill:#FF6F60;}
	.st2{fill:none;stroke:#231F20;stroke-width:1.8158;stroke-linecap:round;stroke-linejoin:round;}
	.st3{fill:none;stroke:#231F20;stroke-width:1.6433;stroke-linecap:round;stroke-linejoin:round;}
	.st4{fill:#231F20;}
	.st5{fill:none;stroke:#231F20;stroke-width:1.6826;stroke-linecap:round;stroke-linejoin:round;}
	.st6{fill:none;stroke:#231F20;stroke-width:1.5555;stroke-linecap:round;stroke-linejoin:round;}
</style>
<metadata>
	<sfw  xmlns="&ns_sfw;">
		<slices></slices>
		<sliceSourceBounds  bottomLeftOrigin="true" height="185" width="185.3" x="0" y="0.9"></sliceSourceBounds>
	</sfw>
</metadata>
<path class="st0" d="M164.2,46.2c-1.9-1.5-3.7-2.8-5.4-3.8c-0.4,1.8-1.3,2.6-1.9,3.5c-0.8,1.1-2.9,1.8-4,1.9
	c-1.1,0.1-2.2-0.7-3.4-0.7s-1.4-1-2.1-0.7c-0.7,0.3-1.3,0.2-2.3-0.6s0.1-2.5,0.6-4.1c0.4-1.1-0.1-2.8-0.4-3.8
	c-13.1-0.8-22.6,9.4-28.9,15.3c-9,8.3-9,6.2-22.6,5.7C81.9,58.4,75.5,61.5,65,72.3c-2,2.1-3.7,4.3-5.4,6.6
	c-1.3,1.9-4.5,4.7-12.2,5.3c-11.9,0.9-24.7,9-27.1,21.4s-5.9,14.5-5.9,14.5c-24.7,24-14,27.6,5,39.5s27.6,0,41.1-9
	c2-1.3,4.3-2.5,6.8-3.5L48,142.2l17.1-6.8l-1.6-10.6c-9.8,0.7-16.7-0.8-18.2-4.8c-3-7.9,15.8-22.3,41.9-32.1
	c13.6-5.1,26.6-8,36.3-8.5c1.4-0.1,2.8-0.1,4.1,0c6.6,0.2,11.1,1.8,12.3,5c1.5,4.1-2.8,10-11,16.1c-0.6,0.4-1.2,0.8-1.8,1.3
	c-1.2,0.8-2.5,1.7-3.9,2.6c-0.5,1.9-1.6,5.8-2.8,8.3c-4.1,8.7-16.9,12.8-22.5,17.7c-2.9,2.6-4.9,5.5-6.6,9.9
	c7.2-2,13.1-4.2,15.6-7.7c3.8-5.5,8.2-6,10.8-5.6c2.9,0.4,5.9,0.6,8.9,0.3c16.3-1.4,22.2-6.4,28.2-15.1c6.7-9.7,13.3-12.1,13.3-12.1
	C195.1,81.2,187.5,65,164.2,46.2L164.2,46.2z M34.3,120.7c-1.7,0-3.1-1.4-3.1-3.1s1.4-3.1,3.1-3.1s3.1,1.4,3.1,3.1
	C37.4,119.3,36,120.7,34.3,120.7z M81.7,77.4c-1.5,0-2.7-1.2-2.7-2.7s1.2-2.7,2.7-2.7s2.7,1.2,2.7,2.7
	C84.4,76.2,83.2,77.4,81.7,77.4z M96.9,78.6c-1.2,0-2.2-1-2.2-2.2s1-2.2,2.2-2.2s2.2,1,2.2,2.2S98.1,78.6,96.9,78.6z M168.4,76.9
	l-4.7,2.1c-0.3,0.1-0.5,0.3-0.6,0.5l-2.8,4.3c-0.6,1-2.1,0.8-2.5-0.2l-2.1-4.7c-0.1-0.3-0.3-0.5-0.5-0.6l-4.3-2.8
	c-1-0.6-0.8-2.1,0.2-2.5l4.7-2.1c0.3-0.1,0.5-0.3,0.6-0.5l2.8-4.3c0.6-1,2.1-0.8,2.5,0.2l2.1,4.7c0.1,0.3,0.3,0.5,0.5,0.6l4.3,2.8
	C169.5,75,169.4,76.5,168.4,76.9L168.4,76.9z"/>
<path class="st0" d="M62.4,115.4c-8.6,1.6-15.3-2.2-15.3-2.2c-1.8,2.6-2.5,4.9-1.8,6.8c1.4,3.6,9.5,5.5,18.2,5L62.4,115.4
	L62.4,115.4z"/>
<path class="st0" d="M85.2,111.4l-6,7.9l-0.7-5.8L85.2,111.4z"/>
<path class="st0" d="M129.5,88.8c0,0,3.3-4,4-5.1c0.6-1,1.3-2.8,1.3-4c0,0,7,2.1,6.3,7.3c-0.7,5.2-11.9,13.6-11.9,13.6L129.5,88.8
	L129.5,88.8z"/>
<path class="st1" d="M127.3,78.9l-3.7,0.5c1.4-0.1,2.8-0.1,4.1,0C127.6,79.1,127.5,79,127.3,78.9z M127.2,101.6l1.7-0.7
	c0,0,0-0.2,0-0.6C128.4,100.8,127.8,101.2,127.2,101.6z"/>
<path class="st2" d="M70.2,41.3c0,0-34.6,8.6-38.9,38l0.8,0.5"/>
<path class="st2" d="M35,72.8L31.7,81c-0.3,0.7,0,1.5,0.6,1.9"/>
<path class="st2" d="M36.6,75.8l-3.4,6.3c-0.5,0.9-0.2,2.1,0.7,2.7"/>
<path class="st2" d="M38.5,76.9l-3.8,6.9c-0.4,0.7-0.1,1.5,0.6,1.9c0.6,0.3,1.3,0.1,1.7-0.4l8.2-10.4l-1.4,4.5
	c-0.4,1.2,0.2,2.4,1.4,2.9"/>
<path class="st2" d="M45.1,82.3l0.5-0.7c2.1-3.3,3.5-7.1,4.1-11c0.6-3.8,1.6-7.3,5.2-9.1c5.5-2.7,19.3-10.1,23.7-7.4
	C83,56.9,83,60,83,60"/>
<path class="st2" d="M57.3,46.6l4.3,11.2"/>
<path class="st2" d="M121.6,32.1c0,0,10.9-2,20.2,4.4"/>
<path class="st2" d="M97.5,46.1c7.7,0,13.9-7.4,13.9-16.4s-6.2-16.4-13.9-16.4s-13.9,7.4-13.9,16.4S89.9,46.1,97.5,46.1z"/>
<path class="st2" d="M90.1,49.3l-0.8,2.6"/>
<path class="st2" d="M103.6,49.6l0.4,4.3"/>
<path class="st2" d="M112.3,40.7l4.5,3.1"/>
<path class="st3" d="M116.5,21l7.8-2.1"/>
<path class="st2" d="M112.2,14.1l8.2-7"/>
<path class="st2" d="M100.3,8l0.8-7"/>
<path class="st2" d="M85.9,14l-3.3-7"/>
<path class="st2" d="M72.2,20.3l5.6,2.7"/>
<path class="st2" d="M75.6,35.6l5.5-1.8"/>
<path class="st2" d="M78.5,45.3l4.5-3.7"/>
<path class="st4" d="M95.1,30.2c0.5,0,0.8-0.4,0.8-0.8s-0.4-0.8-0.8-0.8s-0.8,0.4-0.8,0.8S94.6,30.2,95.1,30.2z"/>
<path class="st4" d="M100.3,28.2c0.5,0,0.8-0.4,0.8-0.8c0-0.5-0.4-0.8-0.8-0.8c-0.5,0-0.8,0.4-0.8,0.8
	C99.4,27.8,99.8,28.2,100.3,28.2z"/>
<path class="st2" d="M99.7,34.3c0,2.3-1,4.1-2.2,4.1s-2.2-1.8-2.2-4.1"/>
<path class="st2" d="M144.5,37.4c0,0,2.2,2.8,0.4,6.9c-0.4,0.9,0.1,2,1,2.3c0.6,0.2,1.3,0,1.7-0.4c1.2-1.3,3.4-2.8,1.9-7.5
	L144.5,37.4L144.5,37.4z"/>
<path class="st2" d="M151.6,38.7l3.3,0.9c0,0,1.3,5.1-5.2,7.4"/>
<path class="st2" d="M156.5,40l2.4,0.8c0,0-0.4,6.8-6.5,6.8"/>
<path class="st5" d="M131.4,98c7-5.5,10.6-10.6,9.3-14.3c-2.9-7.6-26.6-5.6-52.9,4.4c-10.7,4.1-20.2,8.8-27.5,13.6
	c-10.7,6.9-16.7,13.8-15,18.3c1.4,3.6,7.4,5,16.1,4.5"/>
<path class="st6" d="M47.1,113.2c1.9,2.3,6.7,3.3,13.2,3.1"/>
<path class="st6" d="M78.5,113.3c2.1-0.5,4.3-1.2,6.6-1.8l0,0"/>
<path class="st6" d="M135,79.9c0,2.5-1.9,5.5-5.3,8.7"/>
<path class="st2" d="M60.3,101.7l4.8,33.9L48,142.2l18.7,4.5"/>
<path class="st2" d="M79,119.6l-0.7-9.2l12.7-7l-12.8,17.4c-3.6,4.9-6.2,10.4-7.7,16.3l-7.4,29.3L39.4,169l35.5,15.2
	c0,0,9.8-14.1,12.7-28.5c2.9-14.4,5-20.7,10.5-25.5s18.4-8.9,22.5-17.7c4.1-8.7,4.1-18.6,4.1-18.6"/>
<path class="st2" d="M71,95.9l9.1,13"/>
<path class="st5" d="M100.1,84.1c0,0,28.9,5.5,28.9,16.8l-5.2,2.5"/>
<path class="st5" d="M127.5,79.4c0,0,4,5.4,1.5,21.5"/>
<path class="st2" d="M73.1,130.3l17.7,9.3"/>
</svg>
