<?xml version="1.0" encoding="utf-8"?>
<!-- Generator: Adobe Illustrator 26.3.1, SVG Export Plug-In . SVG Version: 6.00 Build 0)  -->
<!DOCTYPE svg PUBLIC "-//W3C//DTD SVG 1.1//EN" "http://www.w3.org/Graphics/SVG/1.1/DTD/svg11.dtd" [
	<!ENTITY ns_extend "http://ns.adobe.com/Extensibility/1.0/">
	<!ENTITY ns_ai "http://ns.adobe.com/AdobeIllustrator/10.0/">
	<!ENTITY ns_graphs "http://ns.adobe.com/Graphs/1.0/">
	<!ENTITY ns_vars "http://ns.adobe.com/Variables/1.0/">
	<!ENTITY ns_imrep "http://ns.adobe.com/ImageReplacement/1.0/">
	<!ENTITY ns_sfw "http://ns.adobe.com/SaveForWeb/1.0/">
	<!ENTITY ns_custom "http://ns.adobe.com/GenericCustomNamespace/1.0/">
	<!ENTITY ns_adobe_xpath "http://ns.adobe.com/XPath/1.0/">
]>
<svg version="1.1" id="Layer_1" xmlns:x="&ns_extend;" xmlns:i="&ns_ai;" xmlns:graph="&ns_graphs;"
	 xmlns="http://www.w3.org/2000/svg" xmlns:xlink="http://www.w3.org/1999/xlink" x="0px" y="0px" width="901.4px" height="752.7px"
	 viewBox="0 0 901.4 752.7" style="enable-background:new 0 0 901.4 752.7;" xml:space="preserve">
<style type="text/css">
	.st0{fill:#F8A161;}
	.st1{fill:#181818;}
	.st2{fill:none;stroke:#181818;stroke-width:0.5635;stroke-linecap:round;stroke-linejoin:round;}
	.st3{fill:none;stroke:#181818;stroke-width:5.5122;stroke-linecap:round;stroke-linejoin:round;}
	.st4{fill:#181818;stroke:#181818;stroke-width:0.6125;}
	.st5{fill:#181818;stroke:#181818;stroke-width:1.2801;stroke-linecap:round;stroke-linejoin:round;}
	.st6{fill:none;stroke:#181818;stroke-width:3.4114;stroke-linecap:round;stroke-linejoin:round;}
	.st7{fill:none;stroke:#181818;stroke-width:5.5122;stroke-miterlimit:10;}
	.st8{fill:#181818;stroke:#181818;stroke-width:1.0841;stroke-linecap:round;stroke-linejoin:round;}
</style>
<metadata>
	<sfw  xmlns="&ns_sfw;">
		<slices></slices>
		<sliceSourceBounds  bottomLeftOrigin="true" height="461" width="552.1" x="173.8" y="146.7"></sliceSourceBounds>
	</sfw>
</metadata>
<path class="st0" d="M698.6,307.5c-3.9-22.9-18.4-40.9-35.5-57.1c-16.9-16.1-36.4-29.6-56.3-42.6c-38.9-25.2-80.3-45.6-127.3-55.1
	c-34-6.8-68.5-8-103.2-7.7c-23.6,0.2-46.9,2-69.9,6.4c-38.2,7.2-71.2,23-96.1,50.5c-24.4,26.9-36.9,58.4-36.4,96.1
	c-1.2,21.4,5.9,39.4,13.2,52.9c15.6,28.8,39.9,50.5,68.2,69.2c30.5,20.2,64.9,29.8,101.5,34.4c20.2,2.5,40.4,3.8,60.8,5
	c0.6-1.5,1.2-3,1.8-4.5c16.6-40.2,70.4-37.2,70.4-37.2l66.8,4.5c19.5,9.7,31.8,24.4,39.6,40.5c5.6-1.3,11-2.9,16.4-4.8
	c22.6-8.3,40.8-22,55.7-39.2C696.9,385.8,705.5,348.2,698.6,307.5z M341.6,361.3c-2,8.9-97.5,8.2-114.4-0.9
	c-16.8-9.1-12.1-45.8,16.8-52.2c10.2-2.3,18.5-0.5,25,2.8c4,2,7.3,4.5,9.9,7c1,0.9,1.8,1.8,2.6,2.7c1.7,1.8,3.9,3,6.3,3.2
	c2,0.2,4-0.1,5.8-1c12.7-6.6,22.2,2.8,26.3,8c0.6,0.7,1.2,1.3,1.9,1.9c1.2,0.9,2.4,1.5,3.9,1.8C332.6,335.9,346.1,341.4,341.6,361.3
	z M491.1,335.5c-0.4,8-4.8,78-4.8,78s-14-5.8-21.9-13.7c-7.8-7.8-2.8-35.2,6.9-60.8c3.1-8.4,9-13.2,15.5-15.7
	C486.8,323.2,491.5,327.5,491.1,335.5z M538.6,312c-21.6-1.6-17.6-11.4-1.6-25.5c16-14.1,31.7,5.5,39.2-5.7s29-13.2,29-13.2
	s30.7-4.1,49.9,16.4c19.1,20.5-12.3,23.5-12.3,23.5S560.3,313.6,538.6,312z M675.5,339.6c-13.2,3.2-31,2.5-33.5-6.9
	c-1.6-6,7.6-10.7,14.5-13.2c5.8-2.1,12.1-2.3,17.8-0.1C687.6,324.5,686.3,337,675.5,339.6z"/>
<path class="st1" d="M444.1,253.6c0.9-1.2,2.8-0.4,2.5,1l-3.9,20.9l-2.9,15.9c-1.1,5.9-7.3,9.2-12.8,7c-5.5-2.3-7.5-9.1-4.2-14
	l9.1-13.3L444.1,253.6z"/>
<path class="st2" d="M444.1,253.6c0.9-1.2,2.8-0.4,2.5,1l-3.9,20.9l-2.9,15.9c-1.1,5.9-7.3,9.2-12.8,7c-5.5-2.3-7.5-9.1-4.2-14
	l9.1-13.3L444.1,253.6L444.1,253.6z"/>
<path class="st1" d="M477,209.3c0.9-1.2,2.8-0.4,2.5,1l-3.9,20.9l-2.9,15.9c-1.1,5.9-7.3,9.2-12.8,7c-5.5-2.3-7.5-9.1-4.2-14
	l9.1-13.3L477,209.3z"/>
<path class="st2" d="M477,209.3c0.9-1.2,2.8-0.4,2.5,1l-3.9,20.9l-2.9,15.9c-1.1,5.9-7.3,9.2-12.8,7c-5.5-2.3-7.5-9.1-4.2-14
	l9.1-13.3L477,209.3L477,209.3z"/>
<path class="st1" d="M466.1,264.3c0.9-1.2,2.8-0.4,2.5,1l-3.9,20.9l-2.9,15.9c-1.1,5.9-7.3,9.2-12.8,7c-5.5-2.3-7.5-9.1-4.2-14
	l9.1-13.3L466.1,264.3z"/>
<path class="st2" d="M466.1,264.3c0.9-1.2,2.8-0.4,2.5,1l-3.9,20.9l-2.9,15.9c-1.1,5.9-7.3,9.2-12.8,7c-5.5-2.3-7.5-9.1-4.2-14
	l9.1-13.3L466.1,264.3L466.1,264.3z"/>
<path class="st1" d="M315.4,379.2c0.9-1.2,2.8-0.4,2.5,1l-3.9,20.9l-2.9,15.9c-1.1,5.9-7.3,9.2-12.8,7c-5.5-2.3-7.5-9.1-4.2-14
	l9.1-13.3L315.4,379.2z"/>
<path class="st2" d="M315.4,379.2c0.9-1.2,2.8-0.4,2.5,1l-3.9,20.9l-2.9,15.9c-1.1,5.9-7.3,9.2-12.8,7c-5.5-2.3-7.5-9.1-4.2-14
	l9.1-13.3L315.4,379.2L315.4,379.2z"/>
<path class="st1" d="M337.3,389.9c0.9-1.2,2.8-0.4,2.5,1l-3.9,20.9l-2.9,15.9c-1.1,5.9-7.3,9.2-12.8,7c-5.5-2.3-7.5-9.1-4.2-14
	l9.1-13.3L337.3,389.9z"/>
<path class="st2" d="M337.3,389.9c0.9-1.2,2.8-0.4,2.5,1l-3.9,20.9l-2.9,15.9c-1.1,5.9-7.3,9.2-12.8,7c-5.5-2.3-7.5-9.1-4.2-14
	l9.1-13.3L337.3,389.9L337.3,389.9z"/>
<path class="st3" d="M488.5,322.5c-7.2,2.4-13.8,7.3-17.1,16.4c-9.6,25.7-14.7,53-6.9,60.8c7.8,7.8,21.9,13.7,21.9,13.7"/>
<path class="st4" d="M561.2,419.2l0.9-46.6c0.2-11.8-2.9-23.3-9.2-33.3c-4.8-7.4-11.8-14.6-22.1-18.7s-23.8-4.9-41.6,0.6l0,0
	c-1.7,0.5-2.3,2.6-1.2,3.9l0,0c1.7,2.1,3.2,6.1,3.2,13.1c0,7.3-1,20.4-2,34.3c-0.1,1.1-0.2,2.1-0.2,3.2c-1.1,15.1-2.3,30.6-2.2,40.4
	L561.2,419.2z M561.2,419.2C561.2,419.2,561.2,419.3,561.2,419.2C561.2,419.3,561.2,419.3,561.2,419.2v0.1c-0.1,0.1-0.1,0.3-0.2,0.6
	c-0.2,0.5-0.4,1.2-0.9,2c-0.9,1.7-2.4,3.8-5.1,5.8c-5.3,4-14.9,7.5-32.5,5.1c-8.8-1.2-15.4-2.3-20.5-3.3c-5-1-8.5-2.1-10.7-3.2
	c-2.3-1.2-3.4-2.5-4-4.1c-0.6-1.7-0.7-3.6-0.7-6.1L561.2,419.2z"/>
<path class="st5" d="M489,320.9c-1.9,0.6-2.6,2.9-1.4,4.4c1.7,2.1,3.2,5.9,3.2,12.9c0,15.7-4.5,58.4-4.5,78c0.1,10,1,12.3,36.3,17.1
	c35.2,4.8,39-14,39-14l0.9-46.7c0.2-11.8-2.9-23.5-9.3-33.4C543.5,324.4,524.8,310,489,320.9L489,320.9z"/>
<path class="st3" d="M461.9,352.5l3.7,2.2"/>
<path class="st3" d="M401.7,517l-36.4-7.3c0,0-21.4,13-25.3,35c0,0,29.4,49.4,85.3,32.5"/>
<path class="st3" d="M430.3,438.6c0,0,24.4,5.5,14.3,50.1c-10.1,44.6-23.9,111.1-23.9,111.1s20.7,11.6,155.7-8
	c0,0,9.6-56.4,11.1-97.4"/>
<path class="st3" d="M579.8,570.6c0,0,24.9-0.2,26.2-15.1c1.3-14.8,15.1-101.2-49.4-133.3l-66.8-4.5c0,0-53.8-2.9-70.4,37.2
	c-16.6,40.2-18.6,77.2-18.6,77.2"/>
<path class="st3" d="M605.8,494.6l116.8,82.7H578.7"/>
<path class="st3" d="M359.6,485.6H213.2l129.5,91.8h38.6"/>
<path class="st6" d="M425.4,577.4h-0.7"/>
<path class="st3" d="M213.7,498.7l129.5,91.8h79.4"/>
<path class="st3" d="M723.1,590.5H576.7"/>
<path class="st3" d="M213.4,485.7v12.7"/>
<path class="st3" d="M343.8,577.2v13"/>
<path class="st3" d="M722.9,577.5v13"/>
<path class="st7" d="M413.7,470.2c0,0-40.1,0.4-55.2,16.4c-2.9,3.1-0.7,8.1,3.5,8.1h44"/>
<path class="st3" d="M393.2,469.7v-14.9"/>
<path class="st3" d="M420.4,452.5H253.9c-4,0-7.3-3.3-7.3-7.3V240c0-4,3.3-7.3,7.3-7.3h335c4,0,7.3,3.3,7.3,7.3v205.3
	c0,3.6-2.6,6.6-5.9,7.2"/>
<path class="st3" d="M237.7,228.7l9.6,6.4"/>
<path class="st3" d="M246.5,445h-3.2c-4,0-7.3-3.3-7.3-7.3V232.4c0-4,3.3-7.3,7.3-7.3h335c4,0,7.3,3.3,7.3,7.3v0.2"/>
<path class="st3" d="M238.8,443.4l10.4,7.3"/>
<path class="st3" d="M581.9,225.9l11,7.8"/>
<path class="st3" d="M363.3,510.4c0,0-23.8-12.8-31.1-7"/>
<path class="st3" d="M340.7,507.7c0,0-11.1-8-20.3-3.2"/>
<path class="st3" d="M335.8,511.2c0,0-10.4-6.8-18.6-5.9c-1.6,0.2-2.9,1.2-3.6,2.6c-0.9,1.7,0.1,3.8,1.9,4.4l14.8,6.2h-16
	c-2.1,0-3.9,1.5-4.3,3.6c-0.3,1.8,0.6,3.7,2.2,4.6l27.5,15.3"/>
<path class="st3" d="M312.8,508.5c-6.2-1.7-11.3,1-14.6,3.9c-3,2.5-4.2,6.6-3.2,10.4c0.7,2.7,2.5,5,5,6.3l32.6,17.9
	c0,0,3.9,0.9,7-4.5"/>
<path class="st1" d="M363.6,313.8l-23,0.6c-1.3,0.1-2.3,1.4-1.7,2.7l8.9,21.3c0.7,1.8-1.3,3.4-2.9,2.3l-19-13
	c-1.1-0.8-2.6-0.2-2.9,1.2l-1,4c-0.7-0.6-1.3-1.2-1.9-1.9c-4-5.3-13.7-14.6-26.3-8c-1.8,1-3.9,1.3-5.8,1l1.2-4.2
	c0.4-1.3-0.7-2.6-2-2.4l-8.2,0.7c-2.6-2.5-5.9-5-9.9-7l12.1-9.2c1.1-0.8,1-2.4-0.2-3.2l-19.7-11.9c-1.7-1-1-3.6,1-3.6l23-0.6
	c1.3-0.1,2.3-1.4,1.7-2.7l-8.9-21.3c-0.7-1.8,1.3-3.4,2.9-2.3l18.9,13c1.1,0.8,2.6,0.2,3-1.2l5.3-22.4c0.4-1.9,3.1-2,3.7-0.2
	l7.7,21.7c0.4,1.3,2,1.7,3.1,0.8l17.5-15c1.5-1.3,3.7,0.2,3.1,2l-6.6,22c-0.4,1.3,0.7,2.6,2,2.4l22.9-1.8c1.9-0.2,2.9,2.3,1.3,3.4
	l-18.3,14c-1.1,0.8-1,2.4,0.2,3.2l19.7,11.9C366.2,311.2,365.5,313.7,363.6,313.8z"/>
<path class="st8" d="M363.6,313.8l-23,0.6c-1.3,0.1-2.3,1.4-1.7,2.7l8.9,21.3c0.7,1.8-1.3,3.4-2.9,2.3l-19-13
	c-1.1-0.8-2.6-0.2-2.9,1.2l-1,4c-0.7-0.6-1.3-1.2-1.9-1.9c-4-5.3-13.7-14.6-26.3-8c-1.8,1-3.9,1.3-5.8,1l1.2-4.2
	c0.4-1.3-0.7-2.6-2-2.4l-8.2,0.7c-2.6-2.5-5.9-5-9.9-7l12.1-9.2c1.1-0.8,1-2.4-0.2-3.2l-19.7-11.9c-1.7-1-1-3.6,1-3.6l23-0.6
	c1.3-0.1,2.3-1.4,1.7-2.7l-8.9-21.3c-0.7-1.8,1.3-3.4,2.9-2.3l18.9,13c1.1,0.8,2.6,0.2,3-1.2l5.3-22.4c0.4-1.9,3.1-2,3.7-0.2
	l7.7,21.7c0.4,1.3,2,1.7,3.1,0.8l17.5-15c1.5-1.3,3.7,0.2,3.1,2l-6.6,22c-0.4,1.3,0.7,2.6,2,2.4l22.9-1.8c1.9-0.2,2.9,2.3,1.3,3.4
	l-18.3,14c-1.1,0.8-1,2.4,0.2,3.2l19.7,11.9C366.2,311.2,365.5,313.7,363.6,313.8z"/>
</svg>
